<svg width="1580" height="6251" viewBox="0 0 1580 6251" fill="none" xmlns="http://www.w3.org/2000/svg">
<rect x="-5" y="-307.466" width="1587" height="6568.46" fill="url(#paint0_linear_91_26)"/>
<g filter="url(#filter0_f_91_26)">
<ellipse cx="352.787" cy="-1124.67" rx="734.787" ry="782.329" fill="black" fill-opacity="0.7"/>
</g>
<g filter="url(#filter1_f_91_26)">
<ellipse cx="1501.79" cy="709.41" rx="734.787" ry="1329.85" fill="#2B2F5A" fill-opacity="0.8"/>
</g>
<g filter="url(#filter2_f_91_26)">
<ellipse cx="1425.79" cy="3863.03" rx="734.787" ry="1329.85" fill="#2B2F5A" fill-opacity="0.8"/>
</g>
<g filter="url(#filter3_f_91_26)">
<ellipse cx="1235.03" cy="4386.31" rx="545.101" ry="542.135" transform="rotate(4.50846 1235.03 4386.31)" fill="black" fill-opacity="0.6"/>
</g>
<path d="M723.5 545L731 692L1019 683C1025.33 625.167 1037 508.9 1033 506.5C1029 504.1 983.667 460.167 961.5 438.5L758 449" stroke="#2E4864" stroke-opacity="0.3"/>
<path d="M723.5 545.5L868.5 600H971L1032.5 506.5L1201 571.5" stroke="#2E4864" stroke-opacity="0.3"/>
<path d="M1203 571.5C1204.2 569.9 1255.17 506.5 1280.5 475L1019 681" stroke="#2E4864" stroke-opacity="0.3"/>
<path d="M1033 506.5C1037.8 502.5 1133.67 405.5 1181 357.5M1181 357.5L1103.5 800.5L1167.5 974.5L1499 865L1306.5 781.5L1337.5 250.5L1181 357.5Z" stroke="#2E4864" stroke-opacity="0.3"/>
<path d="M1184 360.5L1430.5 423.5L1105 800.5" stroke="#2E4864" stroke-opacity="0.3"/>
<path d="M1434.5 418.5C1444.9 417.7 1528.17 396.167 1568.5 385.5L1434.5 537.5L1579.5 489" stroke="#2E4864" stroke-opacity="0.3"/>
<path d="M-3 -16.9998L57.5 157M57.5 157L-23.5 267L165 152L57.5 157ZM57.5 157L-15.5 178.5" stroke="#2E4864" stroke-opacity="0.5"/>
<path d="M166 154L65.5 263L-19 396L121.5 369L-22.5 267" stroke="#2E4864" stroke-opacity="0.5"/>
<path d="M65.5 259.5L-38 318" stroke="#2E4864" stroke-opacity="0.5"/>
<path d="M-16.5 328L21.5 587L240 255.5L307 389.5L-34.5 477.5" stroke="#2E4864" stroke-opacity="0.5"/>
<path d="M-10 552L22.5 587L112.5 688.5L143 821" stroke="#2E4864" stroke-opacity="0.5"/>
<path d="M112.5 689L-24.5 793" stroke="#2E4864" stroke-opacity="0.5"/>
<path d="M113.5 690C110.7 689.6 24.3333 693.167 -18.5 695" stroke="#2E4864" stroke-opacity="0.5"/>
<path d="M74 1026.5L113.5 689.5" stroke="#2E4864" stroke-opacity="0.5"/>
<path d="M142 820.5L-16 744.5" stroke="#2E4864" stroke-opacity="0.5"/>
<path d="M141.5 822L-31 833.5" stroke="#2E4864" stroke-opacity="0.5"/>
<path d="M121 369.5L-32 459.5" stroke="#2E4864" stroke-opacity="0.5"/>
<path d="M64 261.5L354.5 470.266M354.5 470.266L359 473.5L371 327.5L306.5 389L354.5 470.266Z" stroke="#2E4864" stroke-opacity="0.5"/>
<path d="M165 151C160.34 145.468 51.7248 40.0285 -2 -11.9998" stroke="#2E4864" stroke-opacity="0.5"/>
<path d="M166.5 466L-26 627.5" stroke="#2E4864" stroke-opacity="0.5"/>
<path d="M164 467.5L154 570" stroke="#2E4864" stroke-opacity="0.5"/>
<path d="M152.5 569C150.5 570.6 32 629.667 -27 659" stroke="#2E4864" stroke-opacity="0.5"/>
<path d="M152 570.5C155.2 569.3 289.667 504 356.5 471.5L412 637L477 607.5" stroke="#2E4864" stroke-opacity="0.5"/>
<path d="M476.5 502L152.5 568" stroke="#2E4864" stroke-opacity="0.5"/>
<path d="M359.5 471.5L477 504.5" stroke="#2E4864" stroke-opacity="0.5"/>
<circle cx="241" cy="255.5" r="4.5" fill="#254258" fill-opacity="0.2"/>
<circle cx="65" cy="262.5" r="4.5" fill="#254258" fill-opacity="0.2"/>
<circle cx="58" cy="157.5" r="4.5" fill="#254258" fill-opacity="0.2"/>
<circle cx="165" cy="152.5" r="4.5" fill="#254258" fill-opacity="0.2"/>
<circle cx="121" cy="370.5" r="4.5" fill="#254258" fill-opacity="0.2"/>
<circle cx="164.5" cy="467" r="5" fill="#254258" fill-opacity="0.2"/>
<circle cx="153.5" cy="569" r="4" fill="#254258" fill-opacity="0.2"/>
<circle cx="21.5" cy="587" r="4" fill="#254258" fill-opacity="0.2"/>
<circle cx="359.5" cy="473" r="4" fill="#254258" fill-opacity="0.2"/>
<circle cx="476" cy="502.5" r="5.5" fill="#254258" fill-opacity="0.2"/>
<circle cx="476.5" cy="607" r="4" fill="#254258" fill-opacity="0.2"/>
<circle cx="588" cy="418.5" r="4.5" fill="#254258" fill-opacity="0.2"/>
<circle cx="723" cy="543.5" r="4.5" fill="#254258" fill-opacity="0.2"/>
<circle cx="756" cy="446.5" r="4.5" fill="#254258" fill-opacity="0.2"/>
<circle cx="731.5" cy="692" r="6" fill="#254258" fill-opacity="0.2"/>
<circle cx="800.5" cy="760" r="5" fill="#254258" fill-opacity="0.2"/>
<circle cx="626.5" cy="824" r="6" fill="#254258" fill-opacity="0.2"/>
<circle cx="972" cy="600.5" r="4.5" fill="#254258" fill-opacity="0.2"/>
<circle cx="1032" cy="506.5" r="4.5" fill="#254258" fill-opacity="0.2"/>
<circle cx="962" cy="438.5" r="4.5" fill="#254258" fill-opacity="0.2"/>
<circle cx="1181" cy="359.5" r="5.5" fill="#254258" fill-opacity="0.2"/>
<circle cx="1199" cy="572.5" r="5.5" fill="#254258" fill-opacity="0.2"/>
<circle cx="1280" cy="475.5" r="5.5" fill="#254258" fill-opacity="0.2"/>
<circle cx="1340" cy="244.5" r="5.5" fill="#254258" fill-opacity="0.2"/>
<circle cx="1307" cy="780.5" r="5.5" fill="#254258" fill-opacity="0.2"/>
<circle cx="1501" cy="863.5" r="5.5" fill="#254258" fill-opacity="0.2"/>
<circle cx="1462" cy="721.5" r="5.5" fill="#254258" fill-opacity="0.2"/>
<circle cx="1102" cy="800.5" r="5.5" fill="#254258" fill-opacity="0.2"/>
<circle cx="1170" cy="974.5" r="5.5" fill="#254258" fill-opacity="0.2"/>
<circle cx="1429" cy="542.5" r="5.5" fill="#254258" fill-opacity="0.2"/>
<circle cx="1430" cy="423.5" r="5.5" fill="#254258" fill-opacity="0.2"/>
<circle cx="307.5" cy="392" r="4" fill="#254258" fill-opacity="0.2"/>
<circle cx="371" cy="327.5" r="5.5" fill="#254258" fill-opacity="0.2"/>
<circle cx="411" cy="637.5" r="4.5" fill="#254258" fill-opacity="0.2"/>
<circle cx="274.5" cy="685" r="5" fill="#254258" fill-opacity="0.2"/>
<circle cx="115.5" cy="689" r="5" fill="#254258" fill-opacity="0.2"/>
<circle cx="413" cy="753.5" r="4.5" fill="#254258" fill-opacity="0.2"/>
<circle cx="143" cy="821.5" r="4.5" fill="#254258" fill-opacity="0.2"/>
<circle cx="863.5" cy="599.5" r="4.5" fill="#254258" fill-opacity="0.2"/>
<circle cx="75.5" cy="1027" r="5" fill="#254258" fill-opacity="0.2"/>
<path d="M77 1027L-23 991" stroke="#2E4864" stroke-opacity="0.3"/>
<path d="M76 1027C73.6 1027.8 11 1052.33 -20 1064.5" stroke="#2E4864" stroke-opacity="0.3"/>
<path d="M478 504C479.6 501.6 552.333 445 588.5 417L722.5 541.5L756.5 445L733 692.5L475.5 606.5" stroke="#2E4864" stroke-opacity="0.3"/>
<path d="M729.5 692L628 823L413.5 752.5L275.5 685.5L156.5 571" stroke="#2E4864" stroke-opacity="0.3"/>
<path d="M277.5 685L167 468.5" stroke="#2E4864" stroke-opacity="0.3"/>
<path d="M272.5 685.5C263.7 687.9 165.167 686.5 117 685.5" stroke="#2E4864" stroke-opacity="0.3"/>
<path d="M626.5 824L802 760.5" stroke="#2E4864" stroke-opacity="0.3"/>
<circle cx="120" cy="722" r="2" fill="#254258" fill-opacity="0.2"/>
<path d="M759.5 2794L767 2941L1055 2932C1061.33 2874.17 1073 2757.9 1069 2755.5C1065 2753.1 1019.67 2709.17 997.5 2687.5L794 2698" stroke="#2E4864" stroke-opacity="0.15"/>
<path d="M759.5 2794.5L904.5 2849H1007L1068.5 2755.5L1237 2820.5" stroke="#2E4864" stroke-opacity="0.15"/>
<path d="M1239 2820.5C1240.2 2818.9 1291.17 2755.5 1316.5 2724L1055 2930" stroke="#2E4864" stroke-opacity="0.15"/>
<path d="M1069 2755.5C1073.8 2751.5 1169.67 2654.5 1217 2606.5M1217 2606.5L1139.5 3049.5L1203.5 3223.5L1535 3114L1342.5 3030.5L1373.5 2499.5L1217 2606.5Z" stroke="#2E4864" stroke-opacity="0.15"/>
<path d="M1220 2609.5L1466.5 2672.5L1141 3049.5" stroke="#2E4864" stroke-opacity="0.15"/>
<path d="M1470.5 2667.5C1480.9 2666.7 1564.17 2645.17 1604.5 2634.5L1470.5 2786.5L1615.5 2738" stroke="#2E4864" stroke-opacity="0.15"/>
<path d="M33 2232L93.5 2406M93.5 2406L12.5 2516L201 2401L93.5 2406ZM93.5 2406L20.5 2427.5" stroke="#2E4864" stroke-opacity="0.15"/>
<path d="M202 2403L101.5 2512L17 2645L157.5 2618L13.5 2516" stroke="#2E4864" stroke-opacity="0.15"/>
<path d="M101.5 2508.5L-2 2567" stroke="#2E4864" stroke-opacity="0.15"/>
<path d="M19.5 2577L57.5 2836L276 2504.5L343 2638.5L1.5 2726.5" stroke="#2E4864" stroke-opacity="0.15"/>
<path d="M26 2801L58.5 2836L148.5 2937.5L179 3070" stroke="#2E4864" stroke-opacity="0.15"/>
<path d="M148.5 2938L11.5 3042" stroke="#2E4864" stroke-opacity="0.15"/>
<path d="M149.5 2939C146.7 2938.6 60.3333 2942.17 17.5 2944" stroke="#2E4864" stroke-opacity="0.15"/>
<path d="M110 3275.5L149.5 2938.5" stroke="#2E4864" stroke-opacity="0.15"/>
<path d="M178 3069.5L20 2993.5" stroke="#2E4864" stroke-opacity="0.15"/>
<path d="M177.5 3071L5 3082.5" stroke="#2E4864" stroke-opacity="0.15"/>
<path d="M157 2618.5L4 2708.5" stroke="#2E4864" stroke-opacity="0.15"/>
<path d="M100 2510.5L390.5 2719.27M390.5 2719.27L395 2722.5L407 2576.5L342.5 2638L390.5 2719.27Z" stroke="#2E4864" stroke-opacity="0.15"/>
<path d="M201 2400C196.34 2394.47 87.7248 2289.03 34 2237" stroke="#2E4864" stroke-opacity="0.15"/>
<path d="M202.5 2715L10 2876.5" stroke="#2E4864" stroke-opacity="0.15"/>
<path d="M200 2716.5L190 2819" stroke="#2E4864" stroke-opacity="0.15"/>
<path d="M188.5 2818C186.5 2819.6 68 2878.67 9 2908" stroke="#2E4864" stroke-opacity="0.15"/>
<path d="M188 2819.5C191.2 2818.3 325.667 2753 392.5 2720.5L448 2886L513 2856.5" stroke="#2E4864" stroke-opacity="0.15"/>
<path d="M512.5 2751L188.5 2817" stroke="#2E4864" stroke-opacity="0.15"/>
<path d="M395.5 2720.5L513 2753.5" stroke="#2E4864" stroke-opacity="0.15"/>
<circle cx="277" cy="2504.5" r="4.5" fill="#254258" fill-opacity="0.8"/>
<circle cx="277" cy="2504.5" r="4" stroke="#2E4864" stroke-opacity="0.15"/>
<circle cx="101" cy="2511.5" r="4.5" fill="#254258" fill-opacity="0.8"/>
<circle cx="101" cy="2511.5" r="4" stroke="#2E4864" stroke-opacity="0.15"/>
<circle cx="94" cy="2406.5" r="4.5" fill="#254258" fill-opacity="0.8"/>
<circle cx="94" cy="2406.5" r="4" stroke="#2E4864" stroke-opacity="0.15"/>
<circle cx="201" cy="2401.5" r="4.5" fill="#254258" fill-opacity="0.8"/>
<circle cx="201" cy="2401.5" r="4" stroke="#2E4864" stroke-opacity="0.15"/>
<circle cx="157" cy="2619.5" r="4.5" fill="#254258" fill-opacity="0.8"/>
<circle cx="157" cy="2619.5" r="4" stroke="#2E4864" stroke-opacity="0.15"/>
<circle cx="200.5" cy="2716" r="5" fill="#254258" fill-opacity="0.8"/>
<circle cx="200.5" cy="2716" r="4.44444" stroke="#2E4864" stroke-opacity="0.15" stroke-width="1.11111"/>
<circle cx="189.5" cy="2818" r="4" fill="#254258" fill-opacity="0.8"/>
<circle cx="189.5" cy="2818" r="3.55556" stroke="#2E4864" stroke-opacity="0.15" stroke-width="0.888889"/>
<circle cx="57.5" cy="2836" r="4" fill="#254258" fill-opacity="0.8"/>
<circle cx="57.5" cy="2836" r="3.55556" stroke="#2E4864" stroke-opacity="0.15" stroke-width="0.888889"/>
<circle cx="395.5" cy="2722" r="4" fill="#254258" fill-opacity="0.8"/>
<circle cx="395.5" cy="2722" r="3.55556" stroke="#2E4864" stroke-opacity="0.15" stroke-width="0.888889"/>
<circle cx="512" cy="2751.5" r="5.5" fill="#254258" fill-opacity="0.8"/>
<circle cx="512" cy="2751.5" r="4.88889" stroke="#2E4864" stroke-opacity="0.15" stroke-width="1.22222"/>
<circle cx="512.5" cy="2856" r="4" fill="#254258" fill-opacity="0.8"/>
<circle cx="512.5" cy="2856" r="3.55556" stroke="#2E4864" stroke-opacity="0.15" stroke-width="0.888889"/>
<circle cx="624" cy="2667.5" r="4.5" fill="#254258" fill-opacity="0.8"/>
<circle cx="624" cy="2667.5" r="4" stroke="#2E4864" stroke-opacity="0.15"/>
<circle cx="759" cy="2792.5" r="4.5" fill="#254258" fill-opacity="0.8"/>
<circle cx="759" cy="2792.5" r="4" stroke="#2E4864" stroke-opacity="0.15"/>
<circle cx="792" cy="2695.5" r="4.5" fill="#254258" fill-opacity="0.8"/>
<circle cx="792" cy="2695.5" r="4" stroke="#2E4864" stroke-opacity="0.15"/>
<circle cx="767.5" cy="2941" r="6" fill="#254258" fill-opacity="0.8"/>
<circle cx="767.5" cy="2941" r="5.33333" stroke="#2E4864" stroke-opacity="0.15" stroke-width="1.33333"/>
<circle cx="836.5" cy="3009" r="5" fill="#254258" fill-opacity="0.8"/>
<circle cx="836.5" cy="3009" r="4.44444" stroke="#2E4864" stroke-opacity="0.15" stroke-width="1.11111"/>
<circle cx="662.5" cy="3073" r="6" fill="#254258" fill-opacity="0.8"/>
<circle cx="662.5" cy="3073" r="5.33333" stroke="#2E4864" stroke-opacity="0.15" stroke-width="1.33333"/>
<circle cx="1008" cy="2849.5" r="4.5" fill="#254258" fill-opacity="0.8"/>
<circle cx="1008" cy="2849.5" r="4" stroke="#2E4864" stroke-opacity="0.15"/>
<circle cx="1068" cy="2755.5" r="4.5" fill="#254258" fill-opacity="0.8"/>
<circle cx="1068" cy="2755.5" r="4" stroke="#2E4864" stroke-opacity="0.15"/>
<circle cx="998" cy="2687.5" r="4.5" fill="#254258" fill-opacity="0.8"/>
<circle cx="998" cy="2687.5" r="4" stroke="#2E4864" stroke-opacity="0.15"/>
<circle cx="1217" cy="2608.5" r="5.5" fill="#254258" fill-opacity="0.8"/>
<circle cx="1217" cy="2608.5" r="4.88889" stroke="#2E4864" stroke-opacity="0.15" stroke-width="1.22222"/>
<circle cx="1235" cy="2821.5" r="5.5" fill="#254258" fill-opacity="0.8"/>
<circle cx="1235" cy="2821.5" r="4.88889" stroke="#2E4864" stroke-opacity="0.15" stroke-width="1.22222"/>
<circle cx="1316" cy="2724.5" r="5.5" fill="#254258" fill-opacity="0.8"/>
<circle cx="1316" cy="2724.5" r="4.88889" stroke="#2E4864" stroke-opacity="0.15" stroke-width="1.22222"/>
<circle cx="1376" cy="2493.5" r="5.5" fill="#254258" fill-opacity="0.8"/>
<circle cx="1376" cy="2493.5" r="4.88889" stroke="#2E4864" stroke-opacity="0.15" stroke-width="1.22222"/>
<circle cx="1343" cy="3029.5" r="5.5" fill="#254258" fill-opacity="0.8"/>
<circle cx="1343" cy="3029.5" r="4.88889" stroke="#2E4864" stroke-opacity="0.15" stroke-width="1.22222"/>
<circle cx="1537" cy="3112.5" r="5.5" fill="#254258" fill-opacity="0.8"/>
<circle cx="1537" cy="3112.5" r="4.88889" stroke="#2E4864" stroke-opacity="0.15" stroke-width="1.22222"/>
<circle cx="1498" cy="2970.5" r="5.5" fill="#254258" fill-opacity="0.8"/>
<circle cx="1498" cy="2970.5" r="4.88889" stroke="#2E4864" stroke-opacity="0.15" stroke-width="1.22222"/>
<circle cx="1138" cy="3049.5" r="5.5" fill="#254258" fill-opacity="0.8"/>
<circle cx="1138" cy="3049.5" r="4.88889" stroke="#2E4864" stroke-opacity="0.15" stroke-width="1.22222"/>
<circle cx="1206" cy="3223.5" r="5.5" fill="#254258" fill-opacity="0.8"/>
<circle cx="1206" cy="3223.5" r="4.88889" stroke="#2E4864" stroke-opacity="0.15" stroke-width="1.22222"/>
<circle cx="1465" cy="2791.5" r="5.5" fill="#254258" fill-opacity="0.8"/>
<circle cx="1465" cy="2791.5" r="4.88889" stroke="#2E4864" stroke-opacity="0.15" stroke-width="1.22222"/>
<circle cx="1466" cy="2672.5" r="5.5" fill="#254258" fill-opacity="0.8"/>
<circle cx="1466" cy="2672.5" r="4.88889" stroke="#2E4864" stroke-opacity="0.15" stroke-width="1.22222"/>
<circle cx="343.5" cy="2641" r="4" fill="#254258" fill-opacity="0.8"/>
<circle cx="343.5" cy="2641" r="3.55556" stroke="#2E4864" stroke-opacity="0.15" stroke-width="0.888889"/>
<circle cx="407" cy="2576.5" r="5.5" fill="#254258" fill-opacity="0.8"/>
<circle cx="407" cy="2576.5" r="4.88889" stroke="#2E4864" stroke-opacity="0.15" stroke-width="1.22222"/>
<circle cx="447" cy="2886.5" r="4.5" fill="#254258" fill-opacity="0.8"/>
<circle cx="447" cy="2886.5" r="4" stroke="#2E4864" stroke-opacity="0.15"/>
<circle cx="310.5" cy="2934" r="5" fill="#254258" fill-opacity="0.8"/>
<circle cx="310.5" cy="2934" r="4.44444" stroke="#2E4864" stroke-opacity="0.15" stroke-width="1.11111"/>
<circle cx="151.5" cy="2938" r="5" fill="#254258" fill-opacity="0.8"/>
<circle cx="151.5" cy="2938" r="4.44444" stroke="#2E4864" stroke-opacity="0.15" stroke-width="1.11111"/>
<circle cx="449" cy="3002.5" r="4.5" fill="#254258" fill-opacity="0.8"/>
<circle cx="449" cy="3002.5" r="4" stroke="#2E4864" stroke-opacity="0.15"/>
<circle cx="179" cy="3070.5" r="4.5" fill="#254258" fill-opacity="0.8"/>
<circle cx="179" cy="3070.5" r="4" stroke="#2E4864" stroke-opacity="0.15"/>
<circle cx="899.5" cy="2848.5" r="4.5" fill="#254258" fill-opacity="0.8"/>
<circle cx="899.5" cy="2848.5" r="4" stroke="#2E4864" stroke-opacity="0.15"/>
<circle cx="111.5" cy="3276" r="5" fill="#254258" fill-opacity="0.8"/>
<circle cx="111.5" cy="3276" r="4.44444" stroke="#2E4864" stroke-opacity="0.15" stroke-width="1.11111"/>
<path d="M113 3276L13 3240" stroke="#2E4864" stroke-opacity="0.15"/>
<path d="M112 3276C109.6 3276.8 47 3301.33 16 3313.5" stroke="#2E4864" stroke-opacity="0.15"/>
<path d="M514 2753C515.6 2750.6 588.333 2694 624.5 2666L758.5 2790.5L792.5 2694L769 2941.5L511.5 2855.5" stroke="#2E4864" stroke-opacity="0.15"/>
<path d="M765.5 2941L664 3072L449.5 3001.5L311.5 2934.5L192.5 2820" stroke="#2E4864" stroke-opacity="0.15"/>
<path d="M313.5 2934L203 2717.5" stroke="#2E4864" stroke-opacity="0.15"/>
<path d="M308.5 2934.5C299.7 2936.9 201.167 2935.5 153 2934.5" stroke="#2E4864" stroke-opacity="0.15"/>
<path d="M662.5 3073L838 3009.5" stroke="#2E4864" stroke-opacity="0.15"/>
<circle cx="156" cy="2971" r="2" fill="#254258" fill-opacity="0.8"/>
<circle cx="156" cy="2971" r="1.77778" stroke="#2E4864" stroke-opacity="0.15" stroke-width="0.444444"/>
<path d="M740.5 5464L748 5611L1036 5602C1042.33 5544.17 1054 5427.9 1050 5425.5C1046 5423.1 1000.67 5379.17 978.5 5357.5L775 5368" stroke="#2E4864" stroke-opacity="0.5"/>
<path d="M740.5 5464.5L885.5 5519H988L1049.5 5425.5" stroke="#2E4864" stroke-opacity="0.5"/>
<path d="M1042 5599.5L1297 5394.5L1337 5472.5" stroke="#2E4864" stroke-opacity="0.5"/>
<path d="M1050 5425.5C1054.8 5421.5 1150.67 5324.5 1198 5276.5M1198 5276.5L1120.5 5719.5L1184.5 5893.5L1516 5784L1323.5 5700.5L1354.5 5169.5L1198 5276.5Z" stroke="#2E4864" stroke-opacity="0.3"/>
<path d="M1201 5279.5L1447.5 5342.5L1122 5719.5" stroke="#2E4864" stroke-opacity="0.5"/>
<path d="M1451.5 5337.5C1461.9 5336.7 1545.17 5315.17 1585.5 5304.5L1451.5 5456.5L1596.5 5408" stroke="#2E4864" stroke-opacity="0.5"/>
<path d="M14 4902L74.5 5076M74.5 5076L-6.5 5186L182 5071L74.5 5076ZM74.5 5076L1.5 5097.5" stroke="#2E4864" stroke-opacity="0.3"/>
<path d="M183 5073L82.5 5182L-2 5315L138.5 5288L-5.5 5186" stroke="#2E4864" stroke-opacity="0.3"/>
<path d="M82.5 5178.5L-21 5237" stroke="#2E4864" stroke-opacity="0.3"/>
<path d="M0.5 5247L38.5 5506L257 5174.5L324 5308.5L-17.5 5396.5" stroke="#2E4864" stroke-opacity="0.3"/>
<path d="M7 5471L39.5 5506L129.5 5607.5L160 5740" stroke="#2E4864" stroke-opacity="0.3"/>
<path d="M129.5 5608L-7.5 5712" stroke="#2E4864" stroke-opacity="0.3"/>
<path d="M130.5 5609C127.7 5608.6 41.3333 5612.17 -1.5 5614" stroke="#2E4864" stroke-opacity="0.3"/>
<path d="M91 5945.5L130.5 5608.5" stroke="#2E4864" stroke-opacity="0.3"/>
<path d="M159 5739.5L1 5663.5" stroke="#2E4864" stroke-opacity="0.3"/>
<path d="M158.5 5741L-14 5752.5" stroke="#2E4864" stroke-opacity="0.3"/>
<path d="M138 5288.5L-15 5378.5" stroke="#2E4864" stroke-opacity="0.3"/>
<path d="M81 5180.5L371.5 5389.27M371.5 5389.27L376 5392.5L388 5246.5L323.5 5308L371.5 5389.27Z" stroke="#2E4864" stroke-opacity="0.2"/>
<path d="M182 5070C177.34 5064.47 68.7248 4959.03 15 4907" stroke="#2E4864" stroke-opacity="0.3"/>
<path d="M183.5 5385L-9 5546.5" stroke="#2E4864" stroke-opacity="0.3"/>
<path d="M181 5386.5L171 5489" stroke="#2E4864" stroke-opacity="0.3"/>
<path d="M169.5 5488C167.5 5489.6 49 5548.67 -10 5578" stroke="#2E4864" stroke-opacity="0.3"/>
<path d="M169 5489.5C172.2 5488.3 306.667 5423 373.5 5390.5L429 5556L494 5526.5" stroke="#2E4864" stroke-opacity="0.25"/>
<path d="M493.5 5421L169.5 5487" stroke="#2E4864" stroke-opacity="0.3"/>
<path d="M376.5 5390.5L494 5423.5" stroke="#2E4864" stroke-opacity="0.3"/>
<circle cx="258" cy="5174.5" r="4.5" fill="#254258" fill-opacity="0.7"/>
<circle cx="82" cy="5181.5" r="4.5" fill="#254258" fill-opacity="0.7"/>
<circle cx="75" cy="5076.5" r="4.5" fill="#254258" fill-opacity="0.7"/>
<circle cx="182" cy="5071.5" r="4.5" fill="#254258" fill-opacity="0.7"/>
<circle cx="138" cy="5289.5" r="4.5" fill="#254258" fill-opacity="0.7"/>
<circle cx="181.5" cy="5386" r="5" fill="#254258" fill-opacity="0.7"/>
<circle cx="170.5" cy="5488" r="4" fill="#254258" fill-opacity="0.7"/>
<circle cx="38.5" cy="5506" r="4" fill="#254258" fill-opacity="0.7"/>
<circle cx="376.5" cy="5392" r="4" fill="#254258" fill-opacity="0.7"/>
<circle cx="493" cy="5421.5" r="5.5" fill="#254258" fill-opacity="0.7"/>
<circle cx="493.5" cy="5526" r="4" fill="#254258" fill-opacity="0.7"/>
<circle cx="605" cy="5337.5" r="4.5" fill="#254258" fill-opacity="0.7"/>
<circle cx="740" cy="5462.5" r="4.5" fill="#254258" fill-opacity="0.7"/>
<circle cx="773" cy="5365.5" r="4.5" fill="#254258" fill-opacity="0.7"/>
<circle cx="748.5" cy="5611" r="6" fill="#254258" fill-opacity="0.7"/>
<circle cx="817.5" cy="5679" r="5" fill="#254258" fill-opacity="0.7"/>
<circle cx="643.5" cy="5743" r="6" fill="#254258" fill-opacity="0.7"/>
<circle cx="989" cy="5519.5" r="4.5" fill="#254258" fill-opacity="0.7"/>
<circle cx="1049" cy="5425.5" r="4.5" fill="#254258" fill-opacity="0.7"/>
<circle cx="979" cy="5357.5" r="4.5" fill="#254258" fill-opacity="0.7"/>
<circle cx="1198" cy="5278.5" r="5.5" fill="#254258" fill-opacity="0.7"/>
<circle cx="1357" cy="5163.5" r="5.5" fill="#254258" fill-opacity="0.7"/>
<circle cx="1324" cy="5699.5" r="5.5" fill="#254258" fill-opacity="0.7"/>
<circle cx="1518" cy="5782.5" r="5.5" fill="#254258" fill-opacity="0.7"/>
<circle cx="1479" cy="5640.5" r="5.5" fill="#254258" fill-opacity="0.7"/>
<circle cx="1119" cy="5719.5" r="5.5" fill="#254258" fill-opacity="0.7"/>
<circle cx="1187" cy="5893.5" r="5.5" fill="#254258" fill-opacity="0.7"/>
<circle cx="1446" cy="5461.5" r="5.5" fill="#254258" fill-opacity="0.7"/>
<circle cx="1447" cy="5342.5" r="5.5" fill="#254258" fill-opacity="0.7"/>
<circle cx="324.5" cy="5311" r="4" fill="#254258" fill-opacity="0.7"/>
<circle cx="388" cy="5246.5" r="5.5" fill="#254258" fill-opacity="0.7"/>
<circle cx="428" cy="5556.5" r="4.5" fill="#254258" fill-opacity="0.7"/>
<circle cx="291.5" cy="5604" r="5" fill="#254258" fill-opacity="0.7"/>
<circle cx="132.5" cy="5608" r="5" fill="#254258" fill-opacity="0.7"/>
<circle cx="430" cy="5672.5" r="4.5" fill="#254258" fill-opacity="0.7"/>
<circle cx="160" cy="5740.5" r="4.5" fill="#254258" fill-opacity="0.7"/>
<circle cx="880.5" cy="5518.5" r="4.5" fill="#254258" fill-opacity="0.7"/>
<circle cx="92.5" cy="5946" r="5" fill="#254258" fill-opacity="0.7"/>
<path d="M94 5946L-6 5910" stroke="#2E4864" stroke-opacity="0.5"/>
<path d="M93 5946C90.6 5946.8 28 5971.33 -3 5983.5" stroke="#2E4864" stroke-opacity="0.5"/>
<path d="M495 5423C496.6 5420.6 569.333 5364 605.5 5336L739.5 5460.5L773.5 5364L750 5611.5L492.5 5525.5" stroke="#2E4864" stroke-opacity="0.5"/>
<path d="M746.5 5611L645 5742L430.5 5671.5L292.5 5604.5L173.5 5490" stroke="#2E4864" stroke-opacity="0.4"/>
<path d="M294.5 5604L184 5387.5" stroke="#2E4864" stroke-opacity="0.5"/>
<path d="M289.5 5604.5C280.7 5606.9 182.167 5605.5 134 5604.5" stroke="#2E4864" stroke-opacity="0.5"/>
<path d="M643.5 5743L819 5679.5" stroke="#2E4864" stroke-opacity="0.5"/>
<circle cx="137" cy="5641" r="2" fill="#254258" fill-opacity="0.7"/>
<circle cx="1297" cy="5394.5" r="5.5" fill="#254258" fill-opacity="0.7"/>
<circle cx="1335.5" cy="5472.5" r="5.5" fill="#254258" fill-opacity="0.7"/>
<path d="M574.999 1046C562.999 1040.5 114.999 720.5 119.999 721.5C123.999 722.3 318.382 743.5 418.049 755L619.049 739L777.549 683L864.999 599L814.049 820L515.049 876.5L650.549 1071" stroke="#233951" stroke-opacity="0.8" stroke-width="0.5"/>
<path d="M719.051 920L798.551 817L841.705 944.502M719.051 920L798.551 976.5C816.717 966.667 850.951 947 842.551 947M719.051 920L841.705 944.502M719.051 920L514.551 876M719.051 920L629.551 1029L652.551 1069L719.051 920ZM719.051 920L761.051 1069M842.551 947L901.051 926.5V976.5L842.551 947ZM842.551 947C850.951 947 822.384 972 807.051 984.5M842.551 947L841.705 944.502M514.551 876L619.051 953M514.551 876L619.051 1029M761.051 1069L802.708 984.14L695.051 1081L595.051 1069L803.051 984L761.051 1069ZM761.051 1069C801.717 1055.67 884.251 1029 889.051 1029M-1 1140L233 1012.17M619.051 1029L534.051 1069C515.717 1063.83 477.851 1052.9 473.051 1050.5C468.251 1048.1 412.717 1038.83 385.551 1034.5M619.051 1029V953M385.551 1034.5L619.051 953M385.551 1034.5C379.11 1034.5 281.167 1019.61 233 1012.17M619.051 953V947L478.051 1047.5L413 932.5L233 1012.17M619.051 953L787.551 817M143 821C145.4 823.4 208.667 890 240 923L233 1012.17" stroke="#233951" stroke-width="0.5"/>
<circle cx="515.051" cy="875.5" r="3.5" fill="#436A8C"/>
<circle cx="719.051" cy="919.5" r="3.5" fill="#436A8C"/>
<circle cx="383.051" cy="1035.5" r="3.5" fill="#436A8C"/>
<circle cx="476.051" cy="1049.5" r="6.5" fill="#436A8C"/>
<circle cx="804.051" cy="983.5" r="3.5" fill="#436A8C"/>
<circle cx="846.051" cy="952.5" r="3.5" fill="#436A8C"/>
<path d="M359.051 178C347.051 172.5 -18.9492 -34.4998 -13.9492 -33.4998C-9.94924 -32.6998 190.384 -9.49994 290.051 2L491.051 -14L649.551 -70L760.051 -142L686.051 67L387.051 123.5L522.551 318" stroke="#233951" stroke-width="0.5"/>
<circle cx="387.051" cy="122.5" r="3.5" fill="#D9D9D9" fill-opacity="0.5"/>
<circle cx="292.5" cy="0.5" r="3.5" fill="#D9D9D9"/>
<circle cx="33.5" cy="22.5" r="3.5" fill="#D9D9D9"/>
<path d="M355.5 178C351.1 178 278.333 229.667 242.5 255.5" stroke="#131D2A"/>
<circle cx="238.5" cy="925.5" r="6.5" fill="#162232"/>
<path d="M735 695.5L799 756.5L960 441C986 523.167 1034.6 686.7 1021 683.5C1007.4 680.3 841.333 525.834 760 449L864.5 599.5L735 695.5Z" stroke="#233951"/>
<path d="M1171 972C1159 966.5 793 759.5 798 760.5C802 761.3 1002.33 784.5 1102 796L1303 780L1461.5 724L1572 652L1498 861L1199 917.5L1334.5 1112" stroke="#233951" stroke-width="0.5"/>
<path d="M1403 961L1482.5 858L1525.65 985.503M1403 961L1482.5 1017.5C1500.67 1007.67 1534.9 988 1526.5 988M1403 961L1525.65 985.503M1403 961L1198.5 917M1403 961L1313.5 1070L1336.5 1110L1403 961ZM1403 961L1445 1110M1526.5 988L1585 967.5V1017.5L1526.5 988ZM1526.5 988C1534.9 988 1506.33 1013 1491 1025.5M1526.5 988L1525.65 985.503M1198.5 917L1303 994M1198.5 917L1303 1070M1445 1110L1486.66 1025.14L1379 1122L1279 1110L1487 1025L1445 1110ZM1445 1110C1485.67 1096.67 1568.2 1070 1573 1070M1056.5 1000L1098 967.5L1162 1088.5L1303 988V994M1303 1070L1218 1110C1199.67 1104.83 1161.8 1093.9 1157 1091.5C1152.2 1089.1 1096.67 1079.83 1069.5 1075.5L1303 994M1303 1070V994M1303 994L1471.5 858" stroke="#233951" stroke-width="0.5"/>
<circle cx="1199" cy="916.5" r="3.5" fill="#D9D9D9"/>
<circle cx="1403" cy="960.5" r="3.5" fill="#D9D9D9"/>
<circle cx="1067" cy="1076.5" r="3.5" fill="#D9D9D9"/>
<circle cx="994.5" cy="824.5" r="3.5" fill="#D9D9D9"/>
<circle cx="547.5" cy="531.5" r="3.5" fill="#D9D9D9"/>
<circle cx="680.5" cy="607.5" r="3.5" fill="#D9D9D9"/>
<circle cx="861.5" cy="329.5" r="3.5" fill="#D9D9D9"/>
<circle cx="961.5" cy="329.5" r="3.5" fill="#D9D9D9"/>
<circle cx="1047.5" cy="253.5" r="3.5" fill="#D9D9D9"/>
<circle cx="1045.5" cy="48.5002" r="3.5" fill="#D9D9D9"/>
<circle cx="669.5" cy="381.5" r="3.5" fill="#D9D9D9"/>
<circle cx="1160" cy="1090.5" r="6.5" fill="#D9D9D9" fill-opacity="0.5"/>
<circle cx="1488" cy="1024.5" r="3.5" fill="#D9D9D9"/>
<circle cx="1530" cy="993.5" r="3.5" fill="#D9D9D9"/>
<path d="M1050.08 255.053C1036.89 255.424 617.084 231.55 622.011 230.237C625.952 229.186 815.903 161.433 910.386 127.688L1083.6 24.4788L1201.02 -95.8211L1268.31 -209.253L1294.32 10.929L1051.1 193.789L1258.63 308.35" stroke="#233951" stroke-width="0.5"/>
<path d="M1253.32 142.624L1279.5 20.9998L1374.17 110.379M1253.32 142.624L1349.61 158.158C1361.55 141.306 1383.57 108.532 1376.03 112.246M1253.32 142.624L1374.17 110.379M1253.32 142.624L1050.43 193.561M1253.32 142.624L1221.22 279.96L1259.54 305.671L1253.32 142.624ZM1253.32 142.624L1356.86 257.706M1376.03 112.246L1419.44 67.9961L1441.55 112.845L1376.03 112.246ZM1376.03 112.246C1383.57 108.532 1368.99 143.585 1360.77 161.576M1376.03 112.246L1374.17 110.379M1050.43 193.561L1178.21 216.432M1050.43 193.561L1211.81 284.602M1356.86 257.706L1356.71 163.173L1302.96 297.647L1207.96 331.091L1356.96 162.896L1356.86 257.706ZM1356.86 257.706C1387.44 227.769 1449.69 167.363 1453.99 165.241M959.756 330.785L982.613 283.287L1093.51 363.529L1175.56 211.05L1178.21 216.432M1211.81 284.602L1153.25 358.057C1134.52 361.528 1095.72 368.461 1090.35 368.43C1084.99 368.399 1031.08 384.637 1004.79 392.76L1178.21 216.432M1211.81 284.602L1178.21 216.432M1178.21 216.432L1280 21" stroke="#233951" stroke-width="0.5"/>
<circle cx="1050.66" cy="192.892" r="3.5" transform="rotate(-26.2364 1050.66 192.892)" fill="#254258" fill-opacity="0.5"/>
<circle cx="1253.1" cy="142.175" r="3.5" transform="rotate(-26.2364 1253.1 142.175)" fill="#254258" fill-opacity="0.5"/>
<circle cx="1003" cy="394.762" r="3.5" transform="rotate(-26.2364 1003 394.762)" fill="#254258" fill-opacity="0.5"/>
<circle cx="1092.6" cy="366.207" r="6.5" transform="rotate(-26.2364 1092.6 366.207)" fill="#254258" fill-opacity="0.5"/>
<circle cx="1357.63" cy="162.005" r="3.5" transform="rotate(-26.2364 1357.63 162.005)" fill="#254258" fill-opacity="0.5"/>
<circle cx="1375.65" cy="112.651" r="4.96714" transform="rotate(-26.2364 1375.65 112.651)" fill="#254258" fill-opacity="0.5"/>
<circle cx="1420.65" cy="68.6514" r="4.96714" transform="rotate(-26.2364 1420.65 68.6514)" fill="#254258" fill-opacity="0.5"/>
<circle cx="1439.91" cy="112.91" r="2.91956" transform="rotate(-26.2364 1439.91 112.91)" fill="#254258" fill-opacity="0.5"/>
<circle cx="623.5" cy="230.5" r="3.5" fill="#4F5059"/>
<circle cx="1279.5" cy="22.5002" r="3.5" fill="#191C32"/>
<circle cx="522.5" cy="318.5" r="3.5" fill="#D9D9D9"/>
<circle cx="912.5" cy="126.5" r="3.5" fill="#D9D9D9" fill-opacity="0.5"/>
<path d="M511.5 878L413 932.5" stroke="#192435" stroke-width="0.5"/>
<circle cx="354.5" cy="178.5" r="3.5" fill="#D9D9D9" fill-opacity="0.2"/>
<path d="M596.999 2336.25C584.999 2330.75 136.999 2010.75 141.999 2011.75C145.999 2012.55 340.382 2033.75 440.049 2045.25L641.049 2029.25L799.549 1973.25L886.999 1889.25L836.049 2110.25L537.049 2166.75L672.549 2361.25" stroke="#233951" stroke-opacity="0.4" stroke-width="0.5"/>
<path d="M741.051 2210.25L820.551 2107.25L863.705 2234.76M741.051 2210.25L820.551 2266.75C838.717 2256.92 872.951 2237.25 864.551 2237.25M741.051 2210.25L863.705 2234.76M741.051 2210.25L536.551 2166.25M741.051 2210.25L651.551 2319.25L674.551 2359.25L741.051 2210.25ZM741.051 2210.25L783.051 2359.25M864.551 2237.25L923.051 2216.75V2266.75L864.551 2237.25ZM864.551 2237.25C872.951 2237.25 844.384 2262.25 829.051 2274.75M864.551 2237.25L863.705 2234.76M536.551 2166.25L641.051 2243.25M536.551 2166.25L641.051 2319.25M783.051 2359.25L824.708 2274.39L717.051 2371.25L617.051 2359.25L825.051 2274.25L783.051 2359.25ZM783.051 2359.25C823.717 2345.92 906.251 2319.25 911.051 2319.25M174 2340.75L255 2302.42M641.051 2319.25L556.051 2359.25C537.717 2354.09 499.851 2343.15 495.051 2340.75C490.251 2338.35 434.717 2329.09 407.551 2324.75M641.051 2319.25V2243.25M407.551 2324.75L641.051 2243.25M407.551 2324.75C401.11 2324.75 303.167 2309.87 255 2302.42M641.051 2243.25V2237.25L500.051 2337.75L435 2222.75L255 2302.42M641.051 2243.25L809.551 2107.25M165 2111.25C167.4 2113.65 230.667 2180.25 262 2213.25L255 2302.42" stroke="#233951" stroke-opacity="0.4" stroke-width="0.5"/>
<circle cx="537.051" cy="2165.75" r="3.5" fill="#436A8C"/>
<circle cx="741.051" cy="2209.75" r="3.5" fill="#436A8C"/>
<circle cx="405.051" cy="2325.75" r="3.5" fill="#436A8C"/>
<circle cx="498.051" cy="2339.75" r="6.5" fill="#436A8C"/>
<circle cx="826.051" cy="2273.75" r="3.5" fill="#436A8C"/>
<circle cx="868.051" cy="2242.75" r="3.5" fill="#436A8C"/>
<path d="M381.051 1468.25C369.051 1462.75 3.05076 1255.75 8.05076 1256.75C12.0508 1257.55 212.384 1280.75 312.051 1292.25L513.051 1276.25L671.551 1220.25L782.051 1148.25L708.051 1357.25L409.051 1413.75L544.551 1608.25" stroke="#233951" stroke-opacity="0.4" stroke-width="0.5"/>
<circle cx="409.051" cy="1412.75" r="3.5" fill="#D9D9D9" fill-opacity="0.2"/>
<circle cx="314.5" cy="1290.75" r="3.5" fill="#D9D9D9" fill-opacity="0.2"/>
<circle cx="55.5" cy="1312.75" r="3.5" fill="#D9D9D9" fill-opacity="0.2"/>
<path d="M377.5 1468.25C373.1 1468.25 300.333 1519.92 264.5 1545.75" stroke="#131D2A"/>
<circle cx="260.5" cy="2215.75" r="6.5" fill="#162232"/>
<path d="M757 1985.75L821 2046.75L982 1731.25C1008 1813.42 1056.6 1976.95 1043 1973.75C1029.4 1970.55 863.333 1816.09 782 1739.25L886.5 1889.75L757 1985.75Z" stroke="#233951" stroke-opacity="0.4"/>
<path d="M1193 2262.25C1181 2256.75 815 2049.75 820 2050.75C824 2051.55 1024.33 2074.75 1124 2086.25L1325 2070.25L1483.5 2014.25L1594 1942.25L1520 2151.25L1221 2207.75L1356.5 2402.25" stroke="#233951" stroke-opacity="0.4" stroke-width="0.5"/>
<path d="M1425 2251.25L1504.5 2148.25L1547.65 2275.76M1425 2251.25L1504.5 2307.75C1522.67 2297.92 1556.9 2278.25 1548.5 2278.25M1425 2251.25L1547.65 2275.76M1425 2251.25L1220.5 2207.25M1425 2251.25L1335.5 2360.25L1358.5 2400.25L1425 2251.25ZM1425 2251.25L1467 2400.25M1548.5 2278.25L1607 2257.75V2307.75L1548.5 2278.25ZM1548.5 2278.25C1556.9 2278.25 1528.33 2303.25 1513 2315.75M1548.5 2278.25L1547.65 2275.76M1220.5 2207.25L1325 2284.25M1220.5 2207.25L1325 2360.25M1467 2400.25L1508.66 2315.39L1401 2412.25L1301 2400.25L1509 2315.25L1467 2400.25ZM1467 2400.25C1507.67 2386.92 1590.2 2360.25 1595 2360.25M1078.5 2290.25L1120 2257.75L1184 2378.75L1325 2278.25V2284.25M1325 2360.25L1240 2400.25C1221.67 2395.09 1183.8 2384.15 1179 2381.75C1174.2 2379.35 1118.67 2370.09 1091.5 2365.75L1325 2284.25M1325 2360.25V2284.25M1325 2284.25L1493.5 2148.25" stroke="#233951" stroke-opacity="0.4" stroke-width="0.5"/>
<circle cx="1221" cy="2206.75" r="3.5" fill="#D9D9D9" fill-opacity="0.2"/>
<circle cx="1425" cy="2250.75" r="3.5" fill="#D9D9D9" fill-opacity="0.2"/>
<circle cx="1089" cy="2366.75" r="3.5" fill="#D9D9D9" fill-opacity="0.2"/>
<circle cx="1016.5" cy="2114.75" r="3.5" fill="#D9D9D9" fill-opacity="0.2"/>
<circle cx="569.5" cy="1821.75" r="3.5" fill="#D9D9D9" fill-opacity="0.2"/>
<circle cx="702.5" cy="1897.75" r="3.5" fill="#D9D9D9" fill-opacity="0.2"/>
<circle cx="883.5" cy="1619.75" r="3.5" fill="#D9D9D9" fill-opacity="0.2"/>
<circle cx="983.5" cy="1619.75" r="3.5" fill="#D9D9D9" fill-opacity="0.2"/>
<circle cx="1069.5" cy="1543.75" r="3.5" fill="#D9D9D9" fill-opacity="0.2"/>
<circle cx="1067.5" cy="1338.75" r="3.5" fill="#D9D9D9" fill-opacity="0.2"/>
<circle cx="691.5" cy="1671.75" r="3.5" fill="#D9D9D9" fill-opacity="0.2"/>
<circle cx="1182" cy="2380.75" r="6.5" fill="#D9D9D9" fill-opacity="0.2"/>
<circle cx="1510" cy="2314.75" r="3.5" fill="#D9D9D9" fill-opacity="0.2"/>
<circle cx="1552" cy="2283.75" r="3.5" fill="#D9D9D9" fill-opacity="0.2"/>
<path d="M1072.08 1545.31C1058.89 1545.68 639.084 1521.8 644.011 1520.49C647.952 1519.44 837.903 1451.69 932.386 1417.94L1105.6 1314.73L1223.02 1194.43L1290.31 1081L1316.32 1301.18L1073.1 1484.04L1280.63 1598.6" stroke="#233951" stroke-opacity="0.4" stroke-width="0.5"/>
<path d="M1275.32 1432.88L1301.5 1311.25L1396.17 1400.63M1275.32 1432.88L1371.61 1448.41C1383.55 1431.56 1405.57 1398.78 1398.03 1402.5M1275.32 1432.88L1396.17 1400.63M1275.32 1432.88L1072.43 1483.81M1275.32 1432.88L1243.22 1570.21L1281.54 1595.92L1275.32 1432.88ZM1275.32 1432.88L1378.86 1547.96M1398.03 1402.5L1441.44 1358.25L1463.55 1403.1L1398.03 1402.5ZM1398.03 1402.5C1405.57 1398.78 1390.99 1433.84 1382.77 1451.83M1398.03 1402.5L1396.17 1400.63M1072.43 1483.81L1200.21 1506.68M1072.43 1483.81L1233.81 1574.85M1378.86 1547.96L1378.71 1453.43L1324.96 1587.9L1229.96 1621.34L1378.96 1453.15L1378.86 1547.96ZM1378.86 1547.96C1409.44 1518.02 1471.69 1457.62 1475.99 1455.49M981.756 1621.04L1004.61 1573.54L1115.51 1653.78L1197.56 1501.3L1200.21 1506.68M1233.81 1574.85L1175.25 1648.31C1156.52 1651.78 1117.72 1658.71 1112.35 1658.68C1106.99 1658.65 1053.08 1674.89 1026.79 1683.01L1200.21 1506.68M1233.81 1574.85L1200.21 1506.68M1200.21 1506.68L1302 1311.25" stroke="#233951" stroke-opacity="0.4" stroke-width="0.5"/>
<circle cx="1072.66" cy="1483.14" r="3.5" transform="rotate(-26.2364 1072.66 1483.14)" fill="#254258" fill-opacity="0.45"/>
<circle cx="1275.1" cy="1432.43" r="3.5" transform="rotate(-26.2364 1275.1 1432.43)" fill="#254258" fill-opacity="0.45"/>
<circle cx="1025" cy="1685.02" r="3.5" transform="rotate(-26.2364 1025 1685.02)" fill="#254258" fill-opacity="0.45"/>
<circle cx="1114.6" cy="1656.46" r="6.5" transform="rotate(-26.2364 1114.6 1656.46)" fill="#254258" fill-opacity="0.45"/>
<circle cx="1379.63" cy="1452.26" r="3.5" transform="rotate(-26.2364 1379.63 1452.26)" fill="#254258" fill-opacity="0.45"/>
<circle cx="1397.65" cy="1402.9" r="4.96714" transform="rotate(-26.2364 1397.65 1402.9)" fill="#254258" fill-opacity="0.45"/>
<circle cx="1442.65" cy="1358.9" r="4.96714" transform="rotate(-26.2364 1442.65 1358.9)" fill="#254258" fill-opacity="0.45"/>
<circle cx="1461.91" cy="1403.16" r="2.91956" transform="rotate(-26.2364 1461.91 1403.16)" fill="#254258" fill-opacity="0.45"/>
<circle cx="645.5" cy="1520.75" r="3.5" fill="#4F5059"/>
<circle cx="1301.5" cy="1312.75" r="3.5" fill="#191C32"/>
<circle cx="544.5" cy="1608.75" r="3.5" fill="#D9D9D9" fill-opacity="0.2"/>
<circle cx="934.5" cy="1416.75" r="3.5" fill="#D9D9D9" fill-opacity="0.2"/>
<path d="M533.5 2168.25L435 2222.75" stroke="#192435" stroke-width="0.5"/>
<circle cx="376.5" cy="1468.75" r="3.5" fill="#D9D9D9" fill-opacity="0.2"/>
<path d="M606.999 3303.25C594.999 3297.75 146.999 2977.75 151.999 2978.75C155.999 2979.55 350.382 3000.75 450.049 3012.25L651.049 2996.25L809.549 2940.25L896.999 2856.25L846.049 3077.25L547.049 3133.75L682.549 3328.25" stroke="#233951" stroke-opacity="0.35" stroke-width="0.5"/>
<path d="M751.051 3177.25L830.551 3074.25L873.705 3201.76M751.051 3177.25L830.551 3233.75C848.717 3223.92 882.951 3204.25 874.551 3204.25M751.051 3177.25L873.705 3201.76M751.051 3177.25L546.551 3133.25M751.051 3177.25L661.551 3286.25L684.551 3326.25L751.051 3177.25ZM751.051 3177.25L793.051 3326.25M874.551 3204.25L933.051 3183.75V3233.75L874.551 3204.25ZM874.551 3204.25C882.951 3204.25 854.384 3229.25 839.051 3241.75M874.551 3204.25L873.705 3201.76M546.551 3133.25L651.051 3210.25M546.551 3133.25L651.051 3286.25M793.051 3326.25L834.708 3241.39L727.051 3338.25L627.051 3326.25L835.051 3241.25L793.051 3326.25ZM793.051 3326.25C833.717 3312.92 916.251 3286.25 921.051 3286.25M184 3307.75L265 3269.43M651.051 3286.25L566.051 3326.25C547.717 3321.09 509.851 3310.15 505.051 3307.75C500.251 3305.35 444.717 3296.09 417.551 3291.75M651.051 3286.25V3210.25M417.551 3291.75L651.051 3210.25M417.551 3291.75C411.11 3291.75 313.167 3276.87 265 3269.43M651.051 3210.25V3204.25L510.051 3304.75L445 3189.75L265 3269.43M651.051 3210.25L819.551 3074.25M175 3078.25C177.4 3080.65 240.667 3147.25 272 3180.25L265 3269.43" stroke="#233951" stroke-opacity="0.35" stroke-width="0.5"/>
<path d="M391.051 2435.25C379.051 2429.75 13.0508 2222.75 18.0508 2223.75C22.0508 2224.55 222.384 2247.75 322.051 2259.25L523.051 2243.25L681.551 2187.25L792.051 2115.25L718.051 2324.25L419.051 2380.75L554.551 2575.25" stroke="#233951" stroke-opacity="0.35" stroke-width="0.5"/>
<path d="M387.5 2435.25C383.1 2435.25 310.333 2486.92 274.5 2512.75" stroke="#131D2A"/>
<path d="M767 2952.75L831 3013.75L992 2698.25C1018 2780.42 1066.6 2943.95 1053 2940.75C1039.4 2937.55 873.333 2783.09 792 2706.25L896.5 2856.75L767 2952.75Z" stroke="#233951" stroke-opacity="0.35"/>
<path d="M1203 3229.25C1191 3223.75 825 3016.75 830 3017.75C834 3018.55 1034.33 3041.75 1134 3053.25L1335 3037.25L1493.5 2981.25L1604 2909.25L1530 3118.25L1231 3174.75L1366.5 3369.25" stroke="#233951" stroke-opacity="0.35" stroke-width="0.5"/>
<path d="M1435 3218.25L1514.5 3115.25L1557.65 3242.76M1435 3218.25L1514.5 3274.75C1532.67 3264.92 1566.9 3245.25 1558.5 3245.25M1435 3218.25L1557.65 3242.76M1435 3218.25L1230.5 3174.25M1435 3218.25L1345.5 3327.25L1368.5 3367.25L1435 3218.25ZM1435 3218.25L1477 3367.25M1558.5 3245.25L1617 3224.75V3274.75L1558.5 3245.25ZM1558.5 3245.25C1566.9 3245.25 1538.33 3270.25 1523 3282.75M1558.5 3245.25L1557.65 3242.76M1230.5 3174.25L1335 3251.25M1230.5 3174.25L1335 3327.25M1477 3367.25L1518.66 3282.39L1411 3379.25L1311 3367.25L1519 3282.25L1477 3367.25ZM1477 3367.25C1517.67 3353.92 1600.2 3327.25 1605 3327.25M1088.5 3257.25L1130 3224.75L1194 3345.75L1335 3245.25V3251.25M1335 3327.25L1250 3367.25C1231.67 3362.09 1193.8 3351.15 1189 3348.75C1184.2 3346.35 1128.67 3337.09 1101.5 3332.75L1335 3251.25M1335 3327.25V3251.25M1335 3251.25L1503.5 3115.25" stroke="#233951" stroke-opacity="0.35" stroke-width="0.5"/>
<path d="M1082.08 2512.31C1068.89 2512.68 649.084 2488.8 654.011 2487.49C657.952 2486.44 847.903 2418.69 942.386 2384.94L1115.6 2281.73L1233.02 2161.43L1300.31 2048L1326.32 2268.18L1083.1 2451.04L1290.63 2565.6" stroke="#233951" stroke-opacity="0.35" stroke-width="0.5"/>
<path d="M1285.32 2399.88L1311.5 2278.25L1406.17 2367.63M1285.32 2399.88L1381.61 2415.41C1393.55 2398.56 1415.57 2365.78 1408.03 2369.5M1285.32 2399.88L1406.17 2367.63M1285.32 2399.88L1082.43 2450.81M1285.32 2399.88L1253.22 2537.21L1291.54 2562.92L1285.32 2399.88ZM1285.32 2399.88L1388.86 2514.96M1408.03 2369.5L1451.44 2325.25L1473.55 2370.1L1408.03 2369.5ZM1408.03 2369.5C1415.57 2365.78 1400.99 2400.84 1392.77 2418.83M1408.03 2369.5L1406.17 2367.63M1082.43 2450.81L1210.21 2473.68M1082.43 2450.81L1243.81 2541.85M1388.86 2514.96L1388.71 2420.43L1334.96 2554.9L1239.96 2588.34L1388.96 2420.15L1388.86 2514.96ZM1388.86 2514.96C1419.44 2485.02 1481.69 2424.62 1485.99 2422.49M991.756 2588.04L1014.61 2540.54L1125.51 2620.78L1207.56 2468.3L1210.21 2473.68M1243.81 2541.85L1185.25 2615.31C1166.52 2618.78 1127.72 2625.71 1122.35 2625.68C1116.99 2625.65 1063.08 2641.89 1036.79 2650.01L1210.21 2473.68M1243.81 2541.85L1210.21 2473.68M1210.21 2473.68L1312 2278.25" stroke="#233951" stroke-opacity="0.35" stroke-width="0.5"/>
<path d="M543.5 3135.25L445 3189.75" stroke="#192435" stroke-width="0.5"/>
<circle cx="547.051" cy="3132.75" r="3.5" fill="#436A8C"/>
<circle cx="751.051" cy="3176.75" r="3.5" fill="#436A8C"/>
<circle cx="415.051" cy="3292.75" r="3.5" fill="#436A8C"/>
<circle cx="508.051" cy="3306.75" r="6.5" fill="#436A8C"/>
<circle cx="836.051" cy="3240.75" r="3.5" fill="#436A8C"/>
<circle cx="878.051" cy="3209.75" r="3.5" fill="#436A8C"/>
<circle cx="419.051" cy="2379.75" r="3.5" fill="#D9D9D9" fill-opacity="0.15"/>
<circle cx="324.5" cy="2257.75" r="3.5" fill="#D9D9D9" fill-opacity="0.15"/>
<circle cx="65.5" cy="2279.75" r="3.5" fill="#D9D9D9" fill-opacity="0.15"/>
<circle cx="270.5" cy="3182.75" r="6.5" fill="#162232"/>
<circle cx="1231" cy="3173.75" r="3.5" fill="#D9D9D9" fill-opacity="0.15"/>
<circle cx="1435" cy="3217.75" r="3.5" fill="#D9D9D9" fill-opacity="0.15"/>
<circle cx="1099" cy="3333.75" r="3.5" fill="#D9D9D9" fill-opacity="0.15"/>
<circle cx="1026.5" cy="3081.75" r="3.5" fill="#D9D9D9" fill-opacity="0.15"/>
<circle cx="579.5" cy="2788.75" r="3.5" fill="#D9D9D9" fill-opacity="0.15"/>
<circle cx="712.5" cy="2864.75" r="3.5" fill="#D9D9D9" fill-opacity="0.15"/>
<circle cx="893.5" cy="2586.75" r="3.5" fill="#D9D9D9" fill-opacity="0.15"/>
<circle cx="993.5" cy="2586.75" r="3.5" fill="#D9D9D9" fill-opacity="0.15"/>
<circle cx="1079.5" cy="2510.75" r="3.5" fill="#D9D9D9" fill-opacity="0.15"/>
<circle cx="1077.5" cy="2305.75" r="3.5" fill="#D9D9D9" fill-opacity="0.15"/>
<circle cx="701.5" cy="2638.75" r="3.5" fill="#D9D9D9" fill-opacity="0.15"/>
<circle cx="1192" cy="3347.75" r="6.5" fill="#D9D9D9" fill-opacity="0.15"/>
<circle cx="1102.5" cy="3556.5" r="6.5" fill="#D9D9D9" fill-opacity="0.15"/>
<circle cx="1459.5" cy="3443.5" r="6.5" fill="#D9D9D9" fill-opacity="0.15"/>
<circle cx="1391.5" cy="3608.5" r="6.5" fill="#D9D9D9" fill-opacity="0.15"/>
<circle cx="1241.5" cy="3463.5" r="6.5" fill="#D9D9D9" fill-opacity="0.15"/>
<circle cx="366.5" cy="3463.5" r="6.5" fill="#D9D9D9" fill-opacity="0.15"/>
<circle cx="1520" cy="3281.75" r="3.5" fill="#D9D9D9" fill-opacity="0.15"/>
<circle cx="1562" cy="3250.75" r="3.5" fill="#D9D9D9" fill-opacity="0.15"/>
<circle cx="1082.66" cy="2450.14" r="3.5" transform="rotate(-26.2364 1082.66 2450.14)" fill="#254258" fill-opacity="0.35"/>
<circle cx="1285.1" cy="2399.43" r="3.5" transform="rotate(-26.2364 1285.1 2399.43)" fill="#254258" fill-opacity="0.35"/>
<circle cx="1035" cy="2652.01" r="3.5" transform="rotate(-26.2364 1035 2652.01)" fill="#254258" fill-opacity="0.35"/>
<circle cx="1124.6" cy="2623.46" r="6.5" transform="rotate(-26.2364 1124.6 2623.46)" fill="#254258" fill-opacity="0.35"/>
<circle cx="1389.63" cy="2419.26" r="3.5" transform="rotate(-26.2364 1389.63 2419.26)" fill="#254258" fill-opacity="0.35"/>
<circle cx="1407.65" cy="2369.9" r="4.96714" transform="rotate(-26.2364 1407.65 2369.9)" fill="#254258" fill-opacity="0.35"/>
<circle cx="1452.65" cy="2325.9" r="4.96714" transform="rotate(-26.2364 1452.65 2325.9)" fill="#254258" fill-opacity="0.35"/>
<circle cx="1471.91" cy="2370.16" r="2.91956" transform="rotate(-26.2364 1471.91 2370.16)" fill="#254258" fill-opacity="0.35"/>
<circle cx="655.5" cy="2487.75" r="3.5" fill="#4F5059"/>
<circle cx="1311.5" cy="2279.75" r="3.5" fill="#191C32"/>
<circle cx="554.5" cy="2575.75" r="3.5" fill="#D9D9D9" fill-opacity="0.15"/>
<circle cx="944.5" cy="2383.75" r="3.5" fill="#D9D9D9" fill-opacity="0.15"/>
<circle cx="386.5" cy="2435.75" r="3.5" fill="#D9D9D9" fill-opacity="0.15"/>
<ellipse cx="524.051" cy="4850.48" rx="3.5" ry="4.48" fill="#436A8C"/>
<ellipse cx="728.051" cy="4906.8" rx="3.5" ry="4.48" fill="#436A8C"/>
<ellipse cx="392.051" cy="5055.28" rx="3.5" ry="4.48" fill="#436A8C"/>
<ellipse cx="813.051" cy="4988.72" rx="3.5" ry="4.48" fill="#436A8C" fill-opacity="0.7"/>
<ellipse cx="396.051" cy="3886.64" rx="3.5" ry="4.48" fill="#D9D9D9" fill-opacity="0.15"/>
<ellipse cx="301.5" cy="3730.48" rx="3.5" ry="4.48" fill="#D9D9D9" fill-opacity="0.15"/>
<ellipse cx="42.5" cy="3758.64" rx="3.5" ry="4.48" fill="#D9D9D9" fill-opacity="0.15"/>
<ellipse cx="247.5" cy="4914.48" rx="6.5" ry="8.32" fill="#162232"/>
<ellipse cx="1208" cy="4902.96" rx="3.5" ry="4.48" fill="#D9D9D9" fill-opacity="0.15"/>
<ellipse cx="1412" cy="4959.28" rx="3.5" ry="4.48" fill="#D9D9D9" fill-opacity="0.15"/>
<ellipse cx="1076" cy="5107.76" rx="3.5" ry="4.48" fill="#D9D9D9" fill-opacity="0.15"/>
<ellipse cx="1003.5" cy="4785.2" rx="3.5" ry="4.48" fill="#D9D9D9" fill-opacity="0.15"/>
<ellipse cx="556" cy="4410.5" rx="4" ry="4.5" fill="#D9D9D9" fill-opacity="0.15"/>
<ellipse cx="278" cy="4286.5" rx="4" ry="4.5" fill="#D9D9D9" fill-opacity="0.15"/>
<ellipse cx="124" cy="4594.5" rx="4" ry="4.5" fill="#D9D9D9" fill-opacity="0.15"/>
<ellipse cx="145" cy="4091.5" rx="4" ry="4.5" fill="#D9D9D9" fill-opacity="0.15"/>
<ellipse cx="689.5" cy="4507.44" rx="3.5" ry="4.48" fill="#D9D9D9" fill-opacity="0.15"/>
<ellipse cx="1056.5" cy="4054.32" rx="3.5" ry="4.48" fill="#D9D9D9" fill-opacity="0.15"/>
<ellipse cx="1054.5" cy="3791.92" rx="3.5" ry="4.48" fill="#D9D9D9" fill-opacity="0.15"/>
<ellipse cx="678.5" cy="4218.16" rx="3.5" ry="4.48" fill="#D9D9D9" fill-opacity="0.15"/>
<ellipse cx="1169" cy="5125.68" rx="6.5" ry="8.32" fill="#D9D9D9" fill-opacity="0.15"/>
<ellipse cx="1497" cy="5041.2" rx="3.5" ry="4.48" fill="#D9D9D9" fill-opacity="0.15"/>
<ellipse cx="1539" cy="5001.52" rx="3.5" ry="4.48" fill="#D9D9D9" fill-opacity="0.15"/>
<ellipse cx="3.71192" cy="4.30605" rx="3.71192" ry="4.30605" transform="matrix(0.845767 -0.533552 0.359324 0.933213 1054.98 3974.7)" fill="#254258" fill-opacity="0.35"/>
<ellipse cx="3.71192" cy="4.30605" rx="3.71192" ry="4.30605" transform="matrix(0.845767 -0.533552 0.359324 0.933213 1257.41 3909.79)" fill="#254258" fill-opacity="0.35"/>
<ellipse cx="3.71192" cy="4.30605" rx="3.71192" ry="4.30605" transform="matrix(0.845767 -0.533552 0.359324 0.933213 1007.31 4233.1)" fill="#254258" fill-opacity="0.35"/>
<ellipse cx="6.89357" cy="7.99695" rx="6.89357" ry="7.99695" transform="matrix(0.845767 -0.533552 0.359324 0.933213 1092.9 4194.8)" fill="#254258" fill-opacity="0.35"/>
<ellipse cx="3.71192" cy="4.30605" rx="3.71192" ry="4.30605" transform="matrix(0.845767 -0.533552 0.359324 0.933213 1361.95 3935.17)" fill="#254258" fill-opacity="0.35"/>
<ellipse cx="5.26789" cy="6.11107" rx="5.26789" ry="6.11107" transform="matrix(0.845767 -0.533552 0.359324 0.933213 1378 3871.14)" fill="#254258" fill-opacity="0.35"/>
<ellipse cx="5.26789" cy="6.11107" rx="5.26789" ry="6.11107" transform="matrix(0.845767 -0.533552 0.359324 0.933213 1423 3814.82)" fill="#254258" fill-opacity="0.35"/>
<ellipse cx="3.09634" cy="3.59193" rx="3.09634" ry="3.59193" transform="matrix(0.845767 -0.533552 0.359324 0.933213 1445 3872.66)" fill="#254258" fill-opacity="0.35"/>
<ellipse cx="632.5" cy="4024.88" rx="3.5" ry="4.48" fill="#4F5059"/>
<ellipse cx="1288.5" cy="3758.64" rx="3.5" ry="4.48" fill="#191C32"/>
<ellipse cx="921.5" cy="3891.76" rx="3.5" ry="4.48" fill="#D9D9D9" fill-opacity="0.15"/>
<ellipse cx="363.5" cy="3958.32" rx="3.5" ry="4.48" fill="#D9D9D9" fill-opacity="0.15"/>
<ellipse cx="141" cy="4780.5" rx="4" ry="4.5" fill="#D9D9D9" fill-opacity="0.15"/>
<ellipse cx="1412" cy="4201.5" rx="4" ry="4.5" fill="#D9D9D9" fill-opacity="0.15"/>
<ellipse cx="1412" cy="3903.5" rx="4" ry="4.5" fill="#D9D9D9" fill-opacity="0.15"/>
<ellipse cx="1445" cy="4381.5" rx="4" ry="4.5" fill="#D9D9D9" fill-opacity="0.15"/>
<ellipse cx="1161" cy="4303.5" rx="4" ry="4.5" fill="#D9D9D9" fill-opacity="0.15"/>
<ellipse cx="1186" cy="3891.5" rx="4" ry="4.5" fill="#D9D9D9" fill-opacity="0.15"/>
<ellipse cx="1437" cy="4670.5" rx="4" ry="4.5" fill="#D9D9D9" fill-opacity="0.15"/>
<ellipse cx="1358" cy="4826.5" rx="4" ry="4.5" fill="#D9D9D9" fill-opacity="0.15"/>
<ellipse cx="996" cy="4448.5" rx="4" ry="4.5" fill="#D9D9D9" fill-opacity="0.15"/>
<ellipse cx="1560" cy="4498.5" rx="4" ry="4.5" fill="#D9D9D9" fill-opacity="0.15"/>
<defs>
<filter id="filter0_f_91_26" x="-1247.6" y="-2772.6" width="3200.77" height="3295.85" filterUnits="userSpaceOnUse" color-interpolation-filters="sRGB">
<feFlood flood-opacity="0" result="BackgroundImageFix"/>
<feBlend mode="normal" in="SourceGraphic" in2="BackgroundImageFix" result="shape"/>
<feGaussianBlur stdDeviation="432.798" result="effect1_foregroundBlur_91_26"/>
</filter>
<filter id="filter1_f_91_26" x="-98.5957" y="-1486.04" width="3200.77" height="4390.89" filterUnits="userSpaceOnUse" color-interpolation-filters="sRGB">
<feFlood flood-opacity="0" result="BackgroundImageFix"/>
<feBlend mode="normal" in="SourceGraphic" in2="BackgroundImageFix" result="shape"/>
<feGaussianBlur stdDeviation="432.798" result="effect1_foregroundBlur_91_26"/>
</filter>
<filter id="filter2_f_91_26" x="-174.596" y="1667.58" width="3200.77" height="4390.89" filterUnits="userSpaceOnUse" color-interpolation-filters="sRGB">
<feFlood flood-opacity="0" result="BackgroundImageFix"/>
<feBlend mode="normal" in="SourceGraphic" in2="BackgroundImageFix" result="shape"/>
<feGaussianBlur stdDeviation="432.798" result="effect1_foregroundBlur_91_26"/>
</filter>
<filter id="filter3_f_91_26" x="47.7787" y="3201.98" width="2374.5" height="2368.64" filterUnits="userSpaceOnUse" color-interpolation-filters="sRGB">
<feFlood flood-opacity="0" result="BackgroundImageFix"/>
<feBlend mode="normal" in="SourceGraphic" in2="BackgroundImageFix" result="shape"/>
<feGaussianBlur stdDeviation="321.07" result="effect1_foregroundBlur_91_26"/>
</filter>
<linearGradient id="paint0_linear_91_26" x1="-5.00001" y1="32.4976" x2="2147.93" y2="242.672" gradientUnits="userSpaceOnUse">
<stop stop-color="#07090F"/>
<stop offset="0.509197" stop-color="#191C32"/>
<stop offset="1" stop-color="#1B2339"/>
</linearGradient>
</defs>
</svg>
