<svg width="43" height="42" viewBox="0 0 43 42" fill="none" xmlns="http://www.w3.org/2000/svg">
<path d="M17.8584 26.793C16.2605 26.793 14.1927 25.6705 14.1927 24.164V15.6268H3.00772C1.40986 15.6268 0 16.2767 0 17.7832V38.1364C0 39.643 1.40986 41.2677 3.00772 41.2677H24.6258C26.2236 41.2677 27.2262 39.643 27.2262 38.1364V26.7635H17.8584V26.793Z" fill="#1793A6"/>
<path d="M13.0022 11.9645C13.0022 12.762 12.4069 13.3824 11.655 13.3824H1.34723C0.595294 13.3824 0 12.7325 0 11.9645V1.44816C0 0.650571 0.595294 0.0302124 1.34723 0.0302124H11.655C12.4069 0.0302124 13.0022 0.680111 13.0022 1.44816V11.9645Z" fill="#1793A6"/>
<path d="M42.5781 39.8793C42.5781 40.6768 41.9828 41.2972 41.2309 41.2972H30.9232C30.1712 41.2972 29.5759 40.6473 29.5759 39.8793V29.363C29.5759 28.5654 30.1712 27.945 30.9232 27.945H41.2309C41.9828 27.945 42.5781 28.5949 42.5781 29.363V39.8793Z" fill="#1793A6"/>
<path d="M42.5781 22.9232C42.5781 24.4297 41.2622 25.6704 39.6644 25.6704H18.2657C16.6678 25.6704 15.3519 24.4297 15.3519 22.9232V2.74725C15.3519 1.2407 16.6678 0 18.2657 0H39.6644C41.2622 0 42.5781 1.2407 42.5781 2.74725V22.9232Z" fill="#1793A6"/>
</svg>
